<?xml version="1.0" encoding="UTF-8"?> <svg xmlns="http://www.w3.org/2000/svg" width="189" height="56" viewBox="0 0 189 56" fill="none"><g clip-path="url(#clip0_718_3164)"><path d="M0.0229492 32.0203V41.8334V43.1571C0.0229492 46.48 1.34298 49.6669 3.69266 52.0166C6.04234 54.3662 9.22918 55.6863 12.5521 55.6863H43.1823C46.5053 55.6863 49.6921 54.3662 52.0418 52.0166C54.3915 49.6669 55.7115 46.48 55.7115 43.1571V41.8334V32.0203H0.0229492Z" fill="#00AEEF"></path><path d="M55.6885 11.8353H0V31.3264H55.6885V11.8353Z" fill="#00BAF2"></path><path d="M43.1822 0H12.5521C9.47014 0.0001849 6.49646 1.13646 4.19974 3.19151C1.90302 5.24656 0.44446 8.07615 0.103027 11.1391H55.6336C55.2911 8.07615 53.8319 5.24683 51.535 3.19192C49.238 1.137 46.2643 0.000629321 43.1822 0" fill="#40C8F4"></path><path d="M48.7472 34.5188C48.7472 34.4707 48.7472 34.4226 48.7472 34.3722C48.7472 34.3218 48.7472 34.2646 48.7472 34.2119C48.7134 28.0641 46.647 22.1001 42.8701 17.2491C39.0932 12.3982 33.8179 8.93263 27.866 7.39246L27.795 7.41078C23.8048 8.45107 20.0955 10.3651 16.9355 13.0143C13.7755 15.6636 11.2436 18.982 9.52307 22.7295C7.80249 26.4771 6.93615 30.5601 6.98671 34.6835C7.03727 38.8068 8.00345 42.8674 9.8154 46.5716C9.81485 46.5808 9.81485 46.5899 9.8154 46.5991C9.83143 46.6289 9.84517 46.6632 9.8612 46.6953C10.0266 47.0216 10.2547 47.3121 10.5324 47.5503C10.81 47.7885 11.1319 47.9696 11.4796 48.0834C11.8273 48.1971 12.194 48.2413 12.5588 48.2134C12.9235 48.1854 13.2792 48.0859 13.6055 47.9205C13.9318 47.7551 14.2224 47.527 14.4605 47.2493C14.6987 46.9716 14.8798 46.6498 14.9936 46.3021C15.1074 45.9544 15.1516 45.5877 15.1236 45.2229C15.0957 44.8582 14.9961 44.5025 14.8307 44.1762C13.4257 41.3174 12.6504 38.1903 12.5573 35.0063C12.4642 31.8222 13.0555 28.6553 14.2911 25.7192C15.5267 22.7832 17.3779 20.1465 19.7198 17.9872C22.0617 15.8279 24.8396 14.1963 27.866 13.2025C32.1965 14.6332 35.9843 17.3572 38.7189 21.0071C35.9395 20.1977 32.977 20.2748 30.2435 21.2277C27.51 22.1806 25.1416 23.9619 23.4677 26.3237C21.7939 28.6856 20.898 31.5105 20.9046 34.4053C20.9112 37.3001 21.8201 40.1208 23.5047 42.4749C25.1893 44.8291 27.5659 46.5995 30.3037 47.5399C33.0415 48.4803 36.0044 48.5438 38.78 47.7217C41.5556 46.8995 44.0059 45.2326 45.7899 42.9528C47.5738 40.673 48.6028 37.8939 48.7335 35.002C48.7335 34.8394 48.7335 34.6768 48.7335 34.5142L48.7472 34.5188ZM34.8073 42.7197C33.155 42.7192 31.5399 42.2288 30.1663 41.3104C28.7927 40.3921 27.7223 39.087 27.0904 37.5603C26.4585 36.0336 26.2935 34.3537 26.6163 32.7333C26.9391 31.1128 27.7352 29.6244 28.9039 28.4563C30.0726 27.2883 31.5614 26.493 33.182 26.1711C34.8027 25.8492 36.4824 26.0151 38.0088 26.6478C39.5352 27.2806 40.8397 28.3517 41.7573 29.7258C42.6749 31.1 43.1644 32.7153 43.1639 34.3676C43.1636 35.4647 42.9473 36.551 42.5271 37.5645C42.107 38.578 41.4914 39.4988 40.7154 40.2744C39.9394 41.0499 39.0183 41.665 38.0046 42.0846C36.9909 42.5042 35.9044 42.72 34.8073 42.7197Z" fill="white"></path><path d="M34.821 48.5503C32.8243 48.5463 30.851 48.1204 29.0304 47.3004C27.2098 46.4804 25.5831 45.2849 24.2569 43.7922C22.9307 42.2995 21.9349 40.5433 21.3349 38.6389C20.735 36.7344 20.5443 34.7246 20.7754 32.7413C21.0065 30.758 21.6542 28.8459 22.6761 27.1305C23.6979 25.415 25.0708 23.9349 26.7047 22.7872C28.3386 21.6394 30.1966 20.85 32.157 20.4706C34.1173 20.0912 36.1357 20.1305 38.0799 20.5858C35.4352 17.2734 31.8876 14.798 27.866 13.4589C24.8832 14.4519 22.1477 16.0721 19.8433 18.2104C17.539 20.3488 15.7192 22.9558 14.5064 25.8561C13.2936 28.7564 12.7159 31.8828 12.8121 35.025C12.9083 38.1673 13.6763 41.2524 15.0643 44.0731L15.1673 44.2815C15.4748 44.9873 15.502 45.7836 15.2436 46.5088C14.9851 47.2339 14.4603 47.8335 13.7757 48.1856C13.0912 48.5378 12.2982 48.6162 11.558 48.4049C10.8177 48.1936 10.1856 47.7084 9.79017 47.0479L9.61154 46.6907C7.78859 42.9655 6.81335 38.8828 6.75587 34.7359C6.69839 30.5889 7.5601 26.4808 9.27909 22.7065C10.9981 18.9322 13.5317 15.5854 16.6979 12.9067C19.8641 10.228 23.5843 8.28383 27.5912 7.21382L27.8637 7.14282L27.9255 7.15656C33.9307 8.70915 39.2536 12.2047 43.0645 17.0985C46.8755 21.9923 48.9605 28.0094 48.9945 34.2119V34.3745V34.5256C48.9945 34.6882 48.9945 34.8508 48.9945 35.0157L48.9785 35.689L48.9487 35.6501C48.6383 39.1793 47.0142 42.4634 44.398 44.8524C41.7817 47.2413 38.3639 48.561 34.821 48.5503ZM34.821 20.7048C32.1426 20.7058 29.5234 21.4932 27.2885 22.9693C25.0535 24.4454 23.3012 26.5453 22.249 29.0084C21.1967 31.4715 20.8909 34.1893 21.3694 36.8246C21.8478 39.46 23.0896 41.8968 24.9406 43.8327C26.7915 45.7687 29.1702 47.1185 31.7814 47.7147C34.3926 48.311 37.1215 48.1273 39.6293 47.1866C42.137 46.2459 44.3134 44.5896 45.8883 42.4231C47.4632 40.2566 48.3673 37.6754 48.4884 34.9997V34.8371C48.4884 34.734 48.4884 34.6287 48.4884 34.5256V34.3814V34.2233C48.4555 28.1416 46.4156 22.2408 42.6854 17.4372C38.9552 12.6336 33.7433 9.196 27.8591 7.6581H27.8454C21.9414 9.20209 16.7156 12.6594 12.9855 17.4892C9.25539 22.3191 7.2313 28.249 7.22983 34.3516C7.22023 38.5519 8.18027 42.6977 10.0352 46.4663L10.0948 46.5899C10.2451 46.8874 10.4526 47.1523 10.7053 47.3695C10.9581 47.5868 11.2512 47.7521 11.5678 47.8561C11.8844 47.9601 12.2185 48.0007 12.5508 47.9756C12.8831 47.9505 13.2073 47.8602 13.5047 47.7098C13.8022 47.5594 14.0671 47.3519 14.2843 47.0992C14.5016 46.8464 14.6669 46.5534 14.7709 46.2367C14.8749 45.9201 14.9155 45.5861 14.8904 45.2537C14.8653 44.9214 14.775 44.5973 14.6246 44.2998L14.5124 44.0891H14.5238C13.058 41.0529 12.3015 37.7231 12.3116 34.3516C12.3055 29.6096 13.7994 24.9871 16.5797 21.1456C19.3599 17.3041 23.284 14.4404 27.7904 12.9643L27.866 12.9391L27.9438 12.9643C32.324 14.4048 36.1542 17.1595 38.9135 20.8537L39.3555 21.4445L38.6501 21.2384C37.4061 20.8754 36.1169 20.6912 34.821 20.6911V20.7048ZM34.821 42.967C33.1203 42.9665 31.458 42.4618 30.0441 41.5166C28.6303 40.5714 27.5284 39.2282 26.8779 37.6569C26.2274 36.0855 26.0574 34.3565 26.3895 32.6886C26.7216 31.0206 27.5407 29.4886 28.7435 28.2862C29.9462 27.0837 31.4785 26.265 33.1465 25.9333C34.8146 25.6017 36.5435 25.7721 38.1147 26.4231C39.6859 27.074 41.0288 28.1762 41.9736 29.5903C42.9184 31.0044 43.4227 32.6669 43.4227 34.3676C43.4197 36.6478 42.5124 38.8336 40.8998 40.4457C39.2873 42.0578 37.1012 42.9646 34.821 42.967ZM34.821 26.2606C33.2178 26.2615 31.6509 26.7378 30.3183 27.6291C28.9857 28.5205 27.9473 29.787 27.3344 31.2684C26.7215 32.7498 26.5616 34.3797 26.875 35.952C27.1883 37.5243 27.9608 38.9684 29.0947 40.1017C30.2287 41.2351 31.6732 42.0067 33.2457 42.3192C34.8182 42.6316 36.448 42.4708 37.9291 41.8571C39.4102 41.2433 40.676 40.2042 41.5667 38.8711C42.4573 37.5381 42.9326 35.9708 42.9326 34.3676C42.929 32.2178 42.073 30.1572 40.5525 28.6375C39.0319 27.1178 36.9708 26.2631 34.821 26.2606Z" fill="#00AEEF"></path><path d="M88.3295 14.4574H75.8621C74.2108 14.4351 72.5715 14.741 71.0395 15.3574C69.5074 15.9739 68.113 16.8885 66.9374 18.0484C65.7617 19.2082 64.8282 20.59 64.1911 22.1136C63.5539 23.6372 63.2258 25.2722 63.2258 26.9236C63.2258 28.5751 63.5539 30.2101 64.1911 31.7337C64.8282 33.2573 65.7617 34.6391 66.9374 35.7989C68.113 36.9587 69.5074 37.8734 71.0395 38.4899C72.5715 39.1063 74.2108 39.4122 75.8621 39.3898H88.3295C89.9808 39.4122 91.6201 39.1063 93.1522 38.4899C94.6843 37.8734 96.0786 36.9587 97.2543 35.7989C98.4299 34.6391 99.3634 33.2573 100.001 31.7337C100.638 30.2101 100.966 28.5751 100.966 26.9236C100.966 25.2722 100.638 23.6372 100.001 22.1136C99.3634 20.59 98.4299 19.2082 97.2543 18.0484C96.0786 16.8885 94.6843 15.9739 93.1522 15.3574C91.6201 14.741 89.9808 14.4351 88.3295 14.4574ZM88.3295 34.4043H75.8621C73.9008 34.37 72.0314 33.5667 70.6565 32.1676C69.2817 30.7684 68.5113 28.8853 68.5113 26.9236C68.5113 24.962 69.2817 23.0789 70.6565 21.6797C72.0314 20.2806 73.9008 19.4773 75.8621 19.443H88.3295C90.2908 19.4773 92.1602 20.2806 93.5351 21.6797C94.91 23.0789 95.6804 24.962 95.6804 26.9236C95.6804 28.8853 94.91 30.7684 93.5351 32.1676C92.1602 33.5667 90.2908 34.37 88.3295 34.4043Z" fill="#0B203F"></path><path d="M136.948 24.4309H114.505C114.172 24.441 113.839 24.384 113.528 24.2633C113.217 24.1426 112.933 23.9606 112.693 23.7281C112.454 23.4956 112.263 23.2174 112.133 22.9099C112.003 22.6024 111.936 22.272 111.936 21.9381C111.936 21.6042 112.003 21.2738 112.133 20.9663C112.263 20.6588 112.454 20.3806 112.693 20.1481C112.933 19.9156 113.217 19.7336 113.528 19.6129C113.839 19.4922 114.172 19.4352 114.505 19.4453H141.936C142.598 19.4453 143.232 19.1826 143.7 18.7149C144.167 18.2472 144.43 17.6128 144.43 16.9514C144.43 16.29 144.167 15.6556 143.7 15.1879C143.232 14.7202 142.598 14.4575 141.936 14.4575H114.505C112.544 14.4918 110.675 15.295 109.3 16.6942C107.925 18.0933 107.155 19.9765 107.155 21.9381C107.155 23.8997 107.925 25.7829 109.3 27.182C110.675 28.5812 112.544 29.3844 114.505 29.4187H136.948C137.61 29.4187 138.244 29.6815 138.712 30.1492C139.18 30.6169 139.442 31.2512 139.442 31.9127C139.442 32.5741 139.18 33.2084 138.712 33.6761C138.244 34.1438 137.61 34.4066 136.948 34.4066H109.522C108.861 34.4066 108.226 34.6693 107.759 35.137C107.291 35.6047 107.028 36.2391 107.028 36.9005C107.028 37.5619 107.291 38.1963 107.759 38.664C108.226 39.1317 108.861 39.3944 109.522 39.3944H136.948C137.942 39.4118 138.929 39.2312 139.852 38.863C140.774 38.4949 141.615 37.9467 142.323 37.2503C143.032 36.5539 143.595 35.7234 143.979 34.8072C144.363 33.8909 144.561 32.9073 144.561 31.9138C144.561 30.9203 144.363 29.9367 143.979 29.0204C143.595 28.1042 143.032 27.2737 142.323 26.5773C141.615 25.8809 140.774 25.3327 139.852 24.9646C138.929 24.5964 137.942 24.4158 136.948 24.4332" fill="#0B203F"></path><path d="M180.589 14.4575H158.146C156.162 14.4575 154.259 15.2454 152.856 16.648C151.453 18.0506 150.665 19.9531 150.664 21.937V36.8982C150.684 37.5463 150.955 38.1612 151.42 38.6126C151.886 39.0641 152.508 39.3166 153.157 39.3166C153.805 39.3166 154.428 39.0641 154.893 38.6126C155.359 38.1612 155.63 37.5463 155.649 36.8982V29.4164H180.589C182.572 29.4164 184.475 28.6284 185.878 27.2257C187.28 25.8231 188.068 23.9206 188.068 21.937C188.068 19.9533 187.28 18.0508 185.878 16.6482C184.475 15.2455 182.572 14.4575 180.589 14.4575ZM180.589 24.4309H155.649V21.937C155.649 21.2755 155.912 20.6412 156.38 20.1735C156.848 19.7058 157.482 19.443 158.143 19.443H180.586C181.248 19.443 181.882 19.7058 182.35 20.1735C182.818 20.6412 183.08 21.2755 183.08 21.937C183.08 22.5984 182.818 23.2327 182.35 23.7004C181.882 24.1681 181.248 24.4309 180.586 24.4309" fill="#0B203F"></path><path d="M69.0559 50.2243C69.0566 50.429 69.0075 50.6307 68.913 50.8122C68.8184 50.9937 68.6812 51.1496 68.5132 51.2663C68.1191 51.5553 67.6388 51.7022 67.1506 51.6831H66.9811V55.5946C66.9811 55.8649 66.8071 56 66.4613 56C66.1154 56 65.9322 55.8649 65.9322 55.5946V51.6831H65.7719C65.28 51.7035 64.7956 51.5566 64.3979 51.2663C64.2298 51.1496 64.0926 50.9937 63.9981 50.8122C63.9035 50.6307 63.8545 50.429 63.8551 50.2243V48.0052C63.8551 47.7396 64.0315 47.6068 64.3841 47.6068C64.7345 47.6068 64.9109 47.7396 64.9109 48.0052V50.2243C64.9132 50.3206 64.9373 50.4151 64.9813 50.5008C65.0253 50.5864 65.0881 50.661 65.165 50.719C65.3327 50.8638 65.5481 50.9413 65.7696 50.9366H67.1437C67.3689 50.9471 67.5903 50.8755 67.7666 50.735C67.8403 50.6722 67.899 50.5938 67.9386 50.5055C67.9782 50.4172 67.9977 50.3211 67.9956 50.2243V48.0052C67.9956 47.7396 68.1674 47.6068 68.5155 47.6068C68.8636 47.6068 69.0422 47.7396 69.0422 48.0052L69.0559 50.2243Z" fill="#0B203F"></path><path d="M76.7186 54.4267C76.7181 54.6313 76.6681 54.8328 76.5728 55.0139C76.4775 55.1949 76.3397 55.3502 76.1713 55.4664C75.7779 55.7552 75.2986 55.9028 74.8109 55.8855H73.4369C72.9457 55.9051 72.4621 55.76 72.0628 55.4733C71.8941 55.3561 71.7565 55.1995 71.662 55.0171C71.5674 54.8348 71.5187 54.6321 71.52 54.4267V49.1595C71.5201 48.9554 71.5699 48.7544 71.6653 48.574C71.7607 48.3936 71.8987 48.2392 72.0674 48.1243C72.4664 47.8368 72.95 47.6909 73.4415 47.7098H74.8155C75.3071 47.69 75.791 47.836 76.1896 48.1243C76.3561 48.2422 76.4914 48.3989 76.5836 48.5809C76.6758 48.7629 76.7221 48.9646 76.7186 49.1686V54.4267ZM75.6697 54.4267V49.1595C75.6704 49.0635 75.6489 48.9687 75.6068 48.8824C75.5646 48.7962 75.5031 48.7209 75.427 48.6625C75.2508 48.5252 75.0318 48.4546 74.8086 48.4633H73.4346C73.2092 48.4508 72.987 48.5208 72.8094 48.6602C72.7353 48.7202 72.6761 48.7964 72.6364 48.883C72.5967 48.9696 72.5775 49.0642 72.5804 49.1595V54.4267C72.5781 54.5228 72.5976 54.6182 72.6372 54.7058C72.6769 54.7935 72.7357 54.871 72.8094 54.9328C72.9844 55.0761 73.2063 55.1495 73.4323 55.1389H74.8064C75.0315 55.1489 75.2525 55.0755 75.427 54.9328C75.5038 54.8728 75.5659 54.796 75.6084 54.7083C75.6509 54.6205 75.6726 54.5242 75.672 54.4267H75.6697Z" fill="#0B203F"></path><path d="M84.4774 55.4756C84.4758 55.5319 84.461 55.5871 84.4344 55.6367C84.4078 55.6864 84.37 55.7292 84.324 55.7618C84.2201 55.8446 84.0904 55.8884 83.9576 55.8855H81.1934C80.7058 55.9028 80.2265 55.7552 79.8331 55.4664C79.6647 55.3502 79.5269 55.1949 79.4316 55.0139C79.3362 54.8328 79.2862 54.6313 79.2858 54.4267V48.0144C79.2858 47.7487 79.4598 47.6159 79.8079 47.6159C80.1583 47.6159 80.3346 47.7487 80.3346 48.0144V54.4267C80.3336 54.5244 80.3549 54.621 80.397 54.7091C80.439 54.7972 80.5008 54.8745 80.5774 54.9351C80.751 55.0759 80.9701 55.1484 81.1934 55.1389H83.4286V48.0052C83.4286 47.7396 83.6049 47.6068 83.9576 47.6068C84.3057 47.6068 84.4774 47.7396 84.4774 48.0052V55.4756Z" fill="#0B203F"></path><path d="M92.5203 55.5947C92.5203 55.8649 92.3463 56 91.9959 56C91.6455 56 91.4714 55.8649 91.4714 55.5947V52.3221C91.4714 51.8961 91.1882 51.6832 90.6218 51.6832H88.3981V55.5947C88.3981 55.8649 88.2241 56 87.8783 56C87.5325 56 87.3492 55.8649 87.3492 55.5947V48.1197C87.351 48.0639 87.3663 48.0093 87.3939 47.9606C87.4214 47.9119 87.4603 47.8707 87.5073 47.8404C87.6129 47.7594 87.7429 47.7166 87.876 47.719H90.6378C91.1256 47.7012 91.6052 47.8471 92.0005 48.1335C92.1637 48.2517 92.2962 48.4075 92.3867 48.5876C92.4772 48.7678 92.523 48.967 92.5203 49.1686V50.2244C92.5208 50.4372 92.468 50.6467 92.3668 50.8339C92.2656 51.0211 92.1192 51.18 91.9409 51.2961C92.1201 51.4001 92.2682 51.55 92.3701 51.7303C92.472 51.9107 92.5238 52.115 92.5203 52.3221V55.5947ZM91.4714 50.2221V49.164C91.4738 49.0692 91.4544 48.9751 91.4147 48.889C91.375 48.8028 91.316 48.7269 91.2424 48.6671C91.0694 48.529 90.8522 48.4582 90.631 48.4678H88.3981V50.9366H90.5462C91.1669 50.9366 91.4806 50.6984 91.4806 50.2221H91.4714Z" fill="#0B203F"></path><path d="M104.908 54.4267C104.908 54.6312 104.858 54.8326 104.763 55.0137C104.668 55.1948 104.531 55.3501 104.362 55.4664C103.969 55.7552 103.49 55.9028 103.002 55.8855H100.238C99.8853 55.8855 99.709 55.7618 99.709 55.5099C99.709 55.258 99.8853 55.1389 100.238 55.1389H103.002C103.226 55.149 103.446 55.0765 103.62 54.9351C103.694 54.8731 103.753 54.7951 103.793 54.7071C103.833 54.6191 103.852 54.5232 103.849 54.4267V52.3221C103.85 52.2314 103.828 52.1419 103.785 52.0619C103.743 51.9819 103.68 51.9139 103.604 51.8641C103.426 51.7374 103.211 51.673 102.993 51.6809H101.619C101.126 51.7003 100.642 51.5517 100.245 51.2595C100.076 51.1438 99.9383 50.989 99.8426 50.8083C99.7468 50.6277 99.6963 50.4265 99.6952 50.2221V49.1686C99.6909 48.9639 99.7369 48.7612 99.8292 48.5783C99.9214 48.3955 100.057 48.238 100.224 48.1198C100.629 47.8369 101.116 47.696 101.61 47.719H104.358C104.708 47.719 104.885 47.8449 104.885 48.0969C104.885 48.3488 104.708 48.4724 104.358 48.4724H101.61C101.384 48.4605 101.161 48.5304 100.982 48.6694C100.909 48.7298 100.85 48.8061 100.81 48.8926C100.771 48.9791 100.751 49.0735 100.753 49.1686V50.2244C100.756 50.3206 100.78 50.4151 100.824 50.5008C100.868 50.5865 100.931 50.6611 101.007 50.719C101.175 50.8638 101.391 50.9414 101.612 50.9366H102.986C103.466 50.9192 103.939 51.0504 104.342 51.3122C104.511 51.4209 104.65 51.5704 104.746 51.7469C104.842 51.9234 104.892 52.1212 104.891 52.3221L104.908 54.4267Z" fill="#0B203F"></path><path d="M112.57 54.4267C112.57 54.6312 112.521 54.8326 112.426 55.0137C112.331 55.1947 112.193 55.3501 112.025 55.4664C111.632 55.7552 111.152 55.9028 110.665 55.8855H109.291C108.8 55.9051 108.316 55.76 107.917 55.4733C107.748 55.3561 107.61 55.1995 107.516 55.0171C107.421 54.8348 107.373 54.6321 107.374 54.4267V49.1595C107.374 48.9554 107.424 48.7544 107.519 48.574C107.615 48.3936 107.753 48.2392 107.921 48.1243C108.32 47.8368 108.804 47.6909 109.295 47.7098H110.669C111.161 47.69 111.645 47.836 112.043 48.1243C112.211 48.2403 112.347 48.395 112.441 48.5753C112.535 48.7556 112.584 48.9561 112.584 49.1595L112.57 54.4267ZM111.524 54.4267V49.1595C111.524 49.0635 111.503 48.9687 111.461 48.8824C111.419 48.7962 111.357 48.7209 111.281 48.6625C111.105 48.5252 110.886 48.4546 110.663 48.4633H109.288C109.063 48.4508 108.841 48.5208 108.663 48.6602C108.589 48.7202 108.53 48.7964 108.49 48.883C108.451 48.9696 108.431 49.0642 108.434 49.1595V54.4267C108.432 54.5228 108.451 54.6182 108.491 54.7058C108.531 54.7935 108.59 54.871 108.663 54.9328C108.838 55.0761 109.06 55.1495 109.286 55.1389H110.66C110.885 55.1489 111.106 55.0755 111.281 54.9328C111.358 54.8731 111.421 54.7964 111.464 54.7086C111.506 54.6208 111.529 54.5244 111.528 54.4267H111.524Z" fill="#0B203F"></path><path d="M119.39 55.5099C119.39 55.7618 119.216 55.8855 118.87 55.8855H117.038C116.551 55.9028 116.071 55.7552 115.678 55.4664C115.51 55.3501 115.372 55.1947 115.277 55.0136C115.182 54.8326 115.133 54.6311 115.133 54.4267V48.0144C115.133 47.7487 115.307 47.6159 115.653 47.6159C115.998 47.6159 116.182 47.7487 116.182 48.0144V54.4267C116.181 54.5234 116.203 54.6189 116.244 54.7061C116.286 54.7934 116.347 54.8701 116.422 54.9305C116.595 55.073 116.814 55.1471 117.038 55.1389H118.87C119.216 55.1389 119.39 55.2626 119.39 55.5099Z" fill="#0B203F"></path><path d="M122.816 55.5946C122.816 55.8649 122.642 56 122.294 56C121.944 56 121.767 55.8649 121.767 55.5946V48.0052C121.767 47.7396 121.944 47.6068 122.294 47.6068C122.644 47.6068 122.816 47.7396 122.816 48.0052V55.5946Z" fill="#0B203F"></path><path d="M130.859 54.4267C130.858 54.6318 130.808 54.8336 130.711 55.0147C130.615 55.1958 130.477 55.3509 130.307 55.4664C129.916 55.7512 129.44 55.8964 128.956 55.8786H126.185C126.052 55.8816 125.922 55.8387 125.816 55.7572C125.769 55.7252 125.73 55.6823 125.702 55.6321C125.675 55.5819 125.66 55.5259 125.658 55.4687V48.1197C125.66 48.0639 125.675 48.0093 125.703 47.9606C125.73 47.9119 125.769 47.8707 125.816 47.8403C125.922 47.7598 126.052 47.7171 126.185 47.719H128.956C129.443 47.702 129.921 47.8488 130.314 48.1358C130.482 48.2509 130.619 48.405 130.714 48.5849C130.809 48.7649 130.859 48.9652 130.859 49.1686V54.4267ZM129.81 54.4267V49.1594C129.813 49.0646 129.794 48.9704 129.754 48.8841C129.714 48.7979 129.655 48.7221 129.581 48.6625C129.408 48.5244 129.191 48.4536 128.97 48.4633H126.725V55.1343H128.97C129.193 55.1445 129.412 55.0728 129.586 54.9328C129.658 54.8702 129.716 54.7923 129.754 54.7048C129.793 54.6173 129.812 54.5224 129.81 54.4267Z" fill="#0B203F"></path><path d="M143.34 50.2244C143.343 50.4306 143.294 50.6343 143.2 50.8176C143.105 51.0009 142.967 51.1581 142.797 51.2755C142.401 51.5586 141.922 51.702 141.435 51.6832H140.047C139.701 51.6832 139.527 51.5572 139.527 51.3076C139.527 51.058 139.701 50.948 140.049 50.948H141.439C141.668 50.9585 141.892 50.8806 142.065 50.7305C142.138 50.6682 142.197 50.5902 142.237 50.5023C142.276 50.4143 142.296 50.3185 142.294 50.2221V49.164C142.296 49.0692 142.276 48.9751 142.237 48.889C142.197 48.8028 142.138 48.7269 142.065 48.6671C141.892 48.529 141.674 48.4582 141.453 48.4678H139.209V55.5947C139.209 55.8649 139.035 56 138.689 56C138.343 56 138.16 55.8649 138.16 55.5947V48.1198C138.162 48.0639 138.177 48.0093 138.205 47.9606C138.232 47.912 138.271 47.8707 138.318 47.8404C138.424 47.7599 138.554 47.7171 138.687 47.719H141.437C141.923 47.7026 142.401 47.8485 142.795 48.1335C142.963 48.2485 143.101 48.403 143.196 48.5834C143.291 48.7638 143.341 48.9647 143.34 49.1686V50.2244Z" fill="#0B203F"></path><path d="M150.918 55.5947C150.918 55.8649 150.744 56 150.398 56C150.052 56 149.869 55.8649 149.869 55.5947V51.6831H146.773V55.5947C146.773 55.8649 146.597 56 146.244 56C145.898 56 145.724 55.8649 145.724 55.5947V49.1686C145.724 48.9649 145.773 48.7642 145.867 48.5839C145.962 48.4035 146.099 48.2489 146.267 48.1335C146.662 47.8471 147.142 47.7012 147.629 47.719H149.004C149.495 47.6988 149.979 47.8448 150.378 48.1335C150.545 48.2496 150.681 48.4044 150.775 48.5846C150.869 48.7649 150.918 48.9653 150.918 49.1686V55.5947ZM149.869 50.9366V49.164C149.867 49.0689 149.844 48.9754 149.8 48.8909C149.756 48.8063 149.694 48.7329 149.617 48.6762C149.447 48.5359 149.231 48.4619 149.01 48.4678H147.636C147.412 48.4562 147.191 48.5261 147.013 48.6648C146.94 48.725 146.881 48.8013 146.841 48.8878C146.801 48.9743 146.782 49.0688 146.784 49.164V50.9366H149.869Z" fill="#0B203F"></path><path d="M158.872 55.5947C158.872 55.8649 158.698 56 158.347 56C157.997 56 157.823 55.8649 157.823 55.5947V52.3221C157.823 51.8961 157.541 51.6831 156.973 51.6831H154.729V55.5947C154.729 55.8649 154.555 56 154.209 56C153.863 56 153.68 55.8649 153.68 55.5947V48.1197C153.682 48.0639 153.697 48.0093 153.725 47.9606C153.752 47.9119 153.791 47.8707 153.838 47.8403C153.944 47.7598 154.074 47.7171 154.207 47.719H156.969C157.46 47.6986 157.944 47.8447 158.343 48.1335C158.51 48.2494 158.646 48.4042 158.74 48.5845C158.834 48.7648 158.883 48.9652 158.883 49.1686V50.2243C158.883 50.4386 158.828 50.6493 158.725 50.837C158.622 51.0247 158.473 51.1834 158.292 51.2984C158.471 51.4024 158.62 51.5523 158.721 51.7326C158.823 51.913 158.875 52.1173 158.872 52.3244V55.5947ZM157.823 50.2221V49.164C157.825 49.0692 157.806 48.9751 157.766 48.8889C157.726 48.8028 157.667 48.7269 157.594 48.6671C157.421 48.5289 157.203 48.4582 156.982 48.4678H154.738V50.9366H156.872C157.509 50.9366 157.823 50.6984 157.823 50.2221Z" fill="#0B203F"></path><path d="M166.081 48.0923C166.081 48.3419 165.902 48.4678 165.545 48.4678H163.999V55.5946C163.999 55.8649 163.818 56 163.456 56C163.095 56 162.918 55.8649 162.927 55.5946V48.4678H161.395C161.047 48.4678 160.875 48.3419 160.875 48.0923C160.875 47.8426 161.047 47.719 161.395 47.719H165.545C165.902 47.719 166.081 47.8449 166.081 48.0923Z" fill="#0B203F"></path><path d="M173.361 55.5946C173.361 55.8649 173.185 56 172.837 56C172.489 56 172.312 55.8649 172.312 55.5946V49.164C172.314 49.0692 172.295 48.9752 172.255 48.8891C172.216 48.8029 172.157 48.727 172.083 48.6671C171.909 48.5293 171.691 48.4586 171.469 48.4678H169.225V55.5946C169.225 55.8649 169.053 56 168.705 56C168.357 56 168.176 55.8649 168.176 55.5946V48.1197C168.178 48.0639 168.193 48.0093 168.221 47.9606C168.248 47.9119 168.287 47.8707 168.334 47.8403C168.441 47.7593 168.571 47.7166 168.705 47.719H171.465C171.951 47.7019 172.429 47.8478 172.823 48.1335C172.99 48.2494 173.126 48.4042 173.22 48.5846C173.314 48.7649 173.362 48.9653 173.361 49.1686V55.5946Z" fill="#0B203F"></path><path d="M180.284 55.5099C180.284 55.7618 180.112 55.8855 179.764 55.8855H177.902C177.423 55.9016 176.952 55.7538 176.567 55.4664C176.402 55.348 176.268 55.1919 176.175 55.011C176.083 54.8302 176.035 54.6298 176.036 54.4267V48.1197C176.038 48.0639 176.053 48.0092 176.081 47.9606C176.108 47.9119 176.147 47.8707 176.194 47.8403C176.298 47.7605 176.425 47.7178 176.556 47.719H179.773C180.122 47.719 180.293 47.8449 180.293 48.0922C180.293 48.3396 180.122 48.4678 179.773 48.4678H177.073V50.9366H179.773C180.122 50.9366 180.293 51.0602 180.293 51.3076C180.293 51.5549 180.122 51.6831 179.773 51.6831H177.073V54.4313C177.076 54.5276 177.099 54.6223 177.143 54.7083C177.187 54.7943 177.249 54.8694 177.325 54.9282C177.494 55.0722 177.71 55.1488 177.932 55.1435H179.764C180.112 55.1389 180.284 55.2626 180.284 55.5099Z" fill="#0B203F"></path><path d="M187.839 55.5947C187.839 55.8649 187.663 56 187.315 56C186.967 56 186.79 55.8649 186.79 55.5947V52.3221C186.79 51.8961 186.506 51.6831 185.938 51.6831H183.694V55.5947C183.694 55.8649 183.52 56 183.174 56C182.828 56 182.645 55.8649 182.645 55.5947V48.1197C182.647 48.0639 182.662 48.0093 182.69 47.9606C182.717 47.9119 182.756 47.8707 182.803 47.8403C182.91 47.7593 183.04 47.7166 183.174 47.719H185.922C186.414 47.6986 186.898 47.8447 187.296 48.1335C187.464 48.2489 187.601 48.4035 187.696 48.5839C187.791 48.7642 187.84 48.9649 187.839 49.1686V50.2243C187.839 50.437 187.786 50.6463 187.685 50.8334C187.584 51.0205 187.438 51.1795 187.26 51.2961C187.439 51.4004 187.587 51.5504 187.688 51.7307C187.79 51.911 187.842 52.1151 187.839 52.3221V55.5947ZM186.79 50.2221V49.164C186.792 49.0693 186.773 48.9753 186.733 48.8893C186.693 48.8032 186.635 48.7272 186.561 48.6671C186.387 48.5293 186.169 48.4586 185.948 48.4678H183.703V50.9366H185.854C186.478 50.9366 186.79 50.6984 186.79 50.2221Z" fill="#0B203F"></path></g><defs><clipPath id="clip0_718_3164"><rect width="188.068" height="56" fill="white"></rect></clipPath></defs></svg> 